<mxfile host="65bd71144e">
    <diagram id="L_W3hNA2YJ2-c1ZnzgXL" name="Page-1">
        <mxGraphModel dx="949" dy="644" grid="1" gridSize="10" guides="1" tooltips="1" connect="1" arrows="1" fold="1" page="0" pageScale="1" pageWidth="1920" pageHeight="1200" math="0" shadow="0">
            <root>
                <mxCell id="0"/>
                <mxCell id="1" parent="0"/>
                <mxCell id="6" style="edgeStyle=none;html=1;exitX=1;exitY=0.5;exitDx=0;exitDy=0;entryX=0;entryY=0;entryDx=0;entryDy=0;" parent="1" source="2" target="4" edge="1">
                    <mxGeometry relative="1" as="geometry"/>
                </mxCell>
                <mxCell id="2" value="Admin" style="rounded=0;whiteSpace=wrap;html=1;flipH=0;" parent="1" vertex="1">
                    <mxGeometry x="252" y="180" width="120" height="60" as="geometry"/>
                </mxCell>
                <mxCell id="8" style="edgeStyle=none;html=1;exitX=1;exitY=0.25;exitDx=0;exitDy=0;entryX=0;entryY=1;entryDx=0;entryDy=0;" parent="1" source="3" target="4" edge="1">
                    <mxGeometry relative="1" as="geometry"/>
                </mxCell>
                <mxCell id="3" value="User" style="rounded=0;whiteSpace=wrap;html=1;flipH=0;" parent="1" vertex="1">
                    <mxGeometry x="253" y="320" width="120" height="60" as="geometry"/>
                </mxCell>
                <mxCell id="4" value="Ente Panchayath" style="ellipse;whiteSpace=wrap;html=1;flipH=0;" parent="1" vertex="1">
                    <mxGeometry x="513" y="240" width="120" height="80" as="geometry"/>
                </mxCell>
                <mxCell id="7" value="" style="endArrow=classic;html=1;" parent="1" edge="1">
                    <mxGeometry width="50" height="50" relative="1" as="geometry">
                        <mxPoint x="632" y="280" as="sourcePoint"/>
                        <mxPoint x="772" y="280" as="targetPoint"/>
                    </mxGeometry>
                </mxCell>
                <mxCell id="9" value="Database" style="shape=cylinder3;whiteSpace=wrap;html=1;boundedLbl=1;backgroundOutline=1;size=15;flipH=0;" parent="1" vertex="1">
                    <mxGeometry x="773" y="240" width="100" height="80" as="geometry"/>
                </mxCell>
                <mxCell id="14" style="edgeStyle=none;html=1;exitX=1;exitY=0.5;exitDx=0;exitDy=0;" parent="1" source="13" edge="1">
                    <mxGeometry relative="1" as="geometry">
                        <mxPoint x="234" y="750" as="targetPoint"/>
                    </mxGeometry>
                </mxCell>
                <mxCell id="100" style="edgeStyle=none;html=1;exitX=1;exitY=0.5;exitDx=0;exitDy=0;" parent="1" source="13" edge="1">
                    <mxGeometry relative="1" as="geometry">
                        <mxPoint x="350" y="751" as="targetPoint"/>
                    </mxGeometry>
                </mxCell>
                <mxCell id="13" value="Admin" style="rounded=0;whiteSpace=wrap;html=1;flipH=0;" parent="1" vertex="1">
                    <mxGeometry x="111" y="720" width="120" height="60" as="geometry"/>
                </mxCell>
                <mxCell id="15" value="" style="endArrow=none;html=1;" parent="1" edge="1">
                    <mxGeometry width="50" height="50" relative="1" as="geometry">
                        <mxPoint x="351" y="972" as="sourcePoint"/>
                        <mxPoint x="351" y="522" as="targetPoint"/>
                    </mxGeometry>
                </mxCell>
                <mxCell id="17" value="" style="endArrow=classic;html=1;" parent="1" edge="1">
                    <mxGeometry width="50" height="50" relative="1" as="geometry">
                        <mxPoint x="350" y="522" as="sourcePoint"/>
                        <mxPoint x="450" y="522" as="targetPoint"/>
                    </mxGeometry>
                </mxCell>
                <mxCell id="18" value="" style="endArrow=classic;html=1;" parent="1" edge="1">
                    <mxGeometry width="50" height="50" relative="1" as="geometry">
                        <mxPoint x="350" y="672" as="sourcePoint"/>
                        <mxPoint x="450" y="672" as="targetPoint"/>
                    </mxGeometry>
                </mxCell>
                <mxCell id="26" value="" style="edgeStyle=none;html=1;" parent="1" source="19" target="25" edge="1">
                    <mxGeometry relative="1" as="geometry"/>
                </mxCell>
                <mxCell id="19" value="Login" style="ellipse;whiteSpace=wrap;html=1;flipH=0;" parent="1" vertex="1">
                    <mxGeometry x="451" y="482" width="150" height="88" as="geometry"/>
                </mxCell>
                <mxCell id="28" value="" style="edgeStyle=none;html=1;entryX=1;entryY=0.5;entryDx=0;entryDy=0;exitX=0;exitY=0.5;exitDx=0;exitDy=0;" parent="1" source="27" target="20" edge="1">
                    <mxGeometry relative="1" as="geometry">
                        <mxPoint x="690" y="676" as="sourcePoint"/>
                    </mxGeometry>
                </mxCell>
                <mxCell id="20" value="Complaint management" style="ellipse;whiteSpace=wrap;html=1;flipH=0;" parent="1" vertex="1">
                    <mxGeometry x="451" y="632" width="150" height="88" as="geometry"/>
                </mxCell>
                <mxCell id="21" value="Certificate management" style="ellipse;whiteSpace=wrap;html=1;flipH=0;" parent="1" vertex="1">
                    <mxGeometry x="451" y="770" width="150" height="88" as="geometry"/>
                </mxCell>
                <mxCell id="23" value="" style="endArrow=classic;html=1;" parent="1" edge="1">
                    <mxGeometry width="50" height="50" relative="1" as="geometry">
                        <mxPoint x="350" y="809.17" as="sourcePoint"/>
                        <mxPoint x="450" y="809.17" as="targetPoint"/>
                    </mxGeometry>
                </mxCell>
                <mxCell id="25" value="Admin" style="shape=process;whiteSpace=wrap;html=1;backgroundOutline=1;flipH=0;" parent="1" vertex="1">
                    <mxGeometry x="696" y="492" width="120" height="68" as="geometry"/>
                </mxCell>
                <mxCell id="27" value="Usercomplaints" style="shape=process;whiteSpace=wrap;html=1;backgroundOutline=1;flipH=0;" parent="1" vertex="1">
                    <mxGeometry x="696" y="642" width="120" height="68" as="geometry"/>
                </mxCell>
                <mxCell id="29" value="Certificates" style="shape=process;whiteSpace=wrap;html=1;backgroundOutline=1;flipH=0;" parent="1" vertex="1">
                    <mxGeometry x="696" y="780" width="120" height="68" as="geometry"/>
                </mxCell>
                <mxCell id="31" value="" style="endArrow=classic;html=1;" parent="1" edge="1">
                    <mxGeometry width="50" height="50" relative="1" as="geometry">
                        <mxPoint x="350" y="972" as="sourcePoint"/>
                        <mxPoint x="450" y="972" as="targetPoint"/>
                    </mxGeometry>
                </mxCell>
                <mxCell id="33" value="User management" style="ellipse;whiteSpace=wrap;html=1;flipH=0;" parent="1" vertex="1">
                    <mxGeometry x="451" y="932" width="150" height="88" as="geometry"/>
                </mxCell>
                <mxCell id="36" value="" style="edgeStyle=none;html=1;" parent="1" edge="1">
                    <mxGeometry relative="1" as="geometry">
                        <mxPoint x="600" y="971.29" as="sourcePoint"/>
                        <mxPoint x="695" y="971.29" as="targetPoint"/>
                    </mxGeometry>
                </mxCell>
                <mxCell id="37" value="User" style="shape=process;whiteSpace=wrap;html=1;backgroundOutline=1;flipH=0;" parent="1" vertex="1">
                    <mxGeometry x="696" y="942" width="120" height="68" as="geometry"/>
                </mxCell>
                <mxCell id="99" style="edgeStyle=none;html=1;exitX=1;exitY=0.5;exitDx=0;exitDy=0;" parent="1" edge="1">
                    <mxGeometry relative="1" as="geometry">
                        <mxPoint x="350" y="1605" as="targetPoint"/>
                        <mxPoint x="241" y="1605" as="sourcePoint"/>
                    </mxGeometry>
                </mxCell>
                <mxCell id="41" value="User" style="rounded=0;whiteSpace=wrap;html=1;flipH=0;" parent="1" vertex="1">
                    <mxGeometry x="121" y="1576" width="120" height="60" as="geometry"/>
                </mxCell>
                <mxCell id="42" value="" style="endArrow=none;html=1;" parent="1" edge="1">
                    <mxGeometry width="50" height="50" relative="1" as="geometry">
                        <mxPoint x="351" y="1880" as="sourcePoint"/>
                        <mxPoint x="351" y="1315" as="targetPoint"/>
                    </mxGeometry>
                </mxCell>
                <mxCell id="43" value="" style="endArrow=classic;html=1;" parent="1" edge="1">
                    <mxGeometry width="50" height="50" relative="1" as="geometry">
                        <mxPoint x="350" y="1315" as="sourcePoint"/>
                        <mxPoint x="450" y="1315" as="targetPoint"/>
                    </mxGeometry>
                </mxCell>
                <mxCell id="44" value="" style="endArrow=classic;html=1;" parent="1" edge="1">
                    <mxGeometry width="50" height="50" relative="1" as="geometry">
                        <mxPoint x="350" y="1585" as="sourcePoint"/>
                        <mxPoint x="450" y="1585" as="targetPoint"/>
                    </mxGeometry>
                </mxCell>
                <mxCell id="45" value="" style="edgeStyle=none;html=1;" parent="1" target="51" edge="1">
                    <mxGeometry relative="1" as="geometry">
                        <mxPoint x="699" y="1435" as="sourcePoint"/>
                    </mxGeometry>
                </mxCell>
                <mxCell id="46" value="" style="edgeStyle=none;html=1;" parent="1" source="47" target="52" edge="1">
                    <mxGeometry relative="1" as="geometry"/>
                </mxCell>
                <mxCell id="47" value="Post complaints" style="ellipse;whiteSpace=wrap;html=1;flipH=0;" parent="1" vertex="1">
                    <mxGeometry x="451" y="1545" width="150" height="80" as="geometry"/>
                </mxCell>
                <mxCell id="48" value="" style="edgeStyle=none;html=1;" parent="1" source="49" target="53" edge="1">
                    <mxGeometry relative="1" as="geometry"/>
                </mxCell>
                <mxCell id="49" value="Apply certificate" style="ellipse;whiteSpace=wrap;html=1;flipH=0;" parent="1" vertex="1">
                    <mxGeometry x="451" y="1683" width="150" height="80" as="geometry"/>
                </mxCell>
                <mxCell id="50" value="" style="endArrow=classic;html=1;" parent="1" edge="1">
                    <mxGeometry width="50" height="50" relative="1" as="geometry">
                        <mxPoint x="350" y="1880" as="sourcePoint"/>
                        <mxPoint x="450" y="1880" as="targetPoint"/>
                    </mxGeometry>
                </mxCell>
                <mxCell id="51" value="User" style="shape=process;whiteSpace=wrap;html=1;backgroundOutline=1;flipH=0;" parent="1" vertex="1">
                    <mxGeometry x="696" y="1405" width="120" height="60" as="geometry"/>
                </mxCell>
                <mxCell id="52" value="Usercomplaints" style="shape=process;whiteSpace=wrap;html=1;backgroundOutline=1;flipH=0;" parent="1" vertex="1">
                    <mxGeometry x="696" y="1555" width="120" height="60" as="geometry"/>
                </mxCell>
                <mxCell id="53" value="Certificates" style="shape=process;whiteSpace=wrap;html=1;backgroundOutline=1;flipH=0;" parent="1" vertex="1">
                    <mxGeometry x="696" y="1693" width="120" height="60" as="geometry"/>
                </mxCell>
                <mxCell id="58" value="Login" style="ellipse;whiteSpace=wrap;html=1;flipH=0;" parent="1" vertex="1">
                    <mxGeometry x="451" y="1395" width="150" height="80" as="geometry"/>
                </mxCell>
                <mxCell id="59" value="" style="endArrow=classic;html=1;exitX=0.015;exitY=0.649;exitDx=0;exitDy=0;exitPerimeter=0;entryX=0;entryY=0.5;entryDx=0;entryDy=0;" parent="1" target="51" edge="1">
                    <mxGeometry width="50" height="50" relative="1" as="geometry">
                        <mxPoint x="602.7999999999997" y="1435.94" as="sourcePoint"/>
                        <mxPoint x="690" y="1437" as="targetPoint"/>
                    </mxGeometry>
                </mxCell>
                <mxCell id="60" value="Login" style="ellipse;whiteSpace=wrap;html=1;flipH=0;" parent="1" vertex="1">
                    <mxGeometry x="451" y="1395" width="150" height="80" as="geometry"/>
                </mxCell>
                <mxCell id="63" value="" style="edgeStyle=none;html=1;" parent="1" source="61" target="62" edge="1">
                    <mxGeometry relative="1" as="geometry"/>
                </mxCell>
                <mxCell id="61" value="Register" style="ellipse;whiteSpace=wrap;html=1;flipH=0;" parent="1" vertex="1">
                    <mxGeometry x="451" y="1275" width="150" height="80" as="geometry"/>
                </mxCell>
                <mxCell id="62" value="User" style="shape=process;whiteSpace=wrap;html=1;backgroundOutline=1;flipH=0;" parent="1" vertex="1">
                    <mxGeometry x="696" y="1285" width="120" height="60" as="geometry"/>
                </mxCell>
                <mxCell id="64" value="" style="endArrow=classic;html=1;entryX=0;entryY=0.5;entryDx=0;entryDy=0;" parent="1" target="60" edge="1">
                    <mxGeometry width="50" height="50" relative="1" as="geometry">
                        <mxPoint x="350" y="1435" as="sourcePoint"/>
                        <mxPoint x="410" y="1485" as="targetPoint"/>
                        <Array as="points">
                            <mxPoint x="450" y="1435"/>
                        </Array>
                    </mxGeometry>
                </mxCell>
                <mxCell id="90" style="edgeStyle=none;html=1;exitX=0;exitY=0.75;exitDx=0;exitDy=0;entryX=0.935;entryY=0.687;entryDx=0;entryDy=0;entryPerimeter=0;" parent="1" source="25" target="19" edge="1">
                    <mxGeometry relative="1" as="geometry">
                        <mxPoint x="469.5" y="537" as="targetPoint"/>
                    </mxGeometry>
                </mxCell>
                <mxCell id="91" value="&lt;font style=&quot;font-size: 23px;&quot;&gt;&lt;b&gt;Level 0&lt;/b&gt;&lt;/font&gt;" style="text;html=1;align=center;verticalAlign=middle;resizable=0;points=[];autosize=1;strokeColor=none;fillColor=none;flipH=0;" parent="1" vertex="1">
                    <mxGeometry x="70" y="80" width="100" height="40" as="geometry"/>
                </mxCell>
                <mxCell id="92" value="&lt;font style=&quot;font-size: 23px;&quot;&gt;&lt;b&gt;Level 1&lt;/b&gt;&lt;/font&gt;" style="text;html=1;align=center;verticalAlign=middle;resizable=0;points=[];autosize=1;strokeColor=none;fillColor=none;flipH=0;" parent="1" vertex="1">
                    <mxGeometry x="71" y="452" width="100" height="40" as="geometry"/>
                </mxCell>
                <mxCell id="93" value="&lt;font style=&quot;font-size: 23px;&quot;&gt;&lt;b&gt;Level 2&lt;/b&gt;&lt;/font&gt;" style="text;html=1;align=center;verticalAlign=middle;resizable=0;points=[];autosize=1;strokeColor=none;fillColor=none;flipH=0;" parent="1" vertex="1">
                    <mxGeometry x="70" y="1220" width="100" height="40" as="geometry"/>
                </mxCell>
                <mxCell id="94" value="View certificate status" style="ellipse;whiteSpace=wrap;html=1;flipH=0;" parent="1" vertex="1">
                    <mxGeometry x="451" y="1840" width="150" height="80" as="geometry"/>
                </mxCell>
                <mxCell id="95" value="" style="endArrow=classic;html=1;" parent="1" edge="1">
                    <mxGeometry width="50" height="50" relative="1" as="geometry">
                        <mxPoint x="350" y="1722.09" as="sourcePoint"/>
                        <mxPoint x="450" y="1722.09" as="targetPoint"/>
                    </mxGeometry>
                </mxCell>
                <mxCell id="96" value="" style="edgeStyle=none;html=1;" parent="1" edge="1">
                    <mxGeometry relative="1" as="geometry">
                        <mxPoint x="600" y="1879.09" as="sourcePoint"/>
                        <mxPoint x="695" y="1879.09" as="targetPoint"/>
                    </mxGeometry>
                </mxCell>
                <mxCell id="97" value="Certificates" style="shape=process;whiteSpace=wrap;html=1;backgroundOutline=1;flipH=0;" parent="1" vertex="1">
                    <mxGeometry x="695" y="1850" width="120" height="60" as="geometry"/>
                </mxCell>
                <mxCell id="101" value="" style="edgeStyle=none;html=1;" edge="1" parent="1">
                    <mxGeometry relative="1" as="geometry">
                        <mxPoint x="600.9999999999993" y="683" as="sourcePoint"/>
                        <mxPoint x="696" y="683" as="targetPoint"/>
                    </mxGeometry>
                </mxCell>
                <mxCell id="102" value="" style="edgeStyle=none;html=1;" edge="1" parent="1">
                    <mxGeometry relative="1" as="geometry">
                        <mxPoint x="599.9999999999993" y="813.41" as="sourcePoint"/>
                        <mxPoint x="695" y="813.41" as="targetPoint"/>
                    </mxGeometry>
                </mxCell>
                <mxCell id="106" value="" style="edgeStyle=none;html=1;entryX=1;entryY=0.5;entryDx=0;entryDy=0;exitX=0;exitY=0.5;exitDx=0;exitDy=0;" edge="1" parent="1">
                    <mxGeometry relative="1" as="geometry">
                        <mxPoint x="695" y="806" as="sourcePoint"/>
                        <mxPoint x="600" y="806" as="targetPoint"/>
                    </mxGeometry>
                </mxCell>
                <mxCell id="107" value="" style="edgeStyle=none;html=1;entryX=1;entryY=0.5;entryDx=0;entryDy=0;exitX=0;exitY=0.5;exitDx=0;exitDy=0;" edge="1" parent="1">
                    <mxGeometry relative="1" as="geometry">
                        <mxPoint x="695" y="975.38" as="sourcePoint"/>
                        <mxPoint x="600" y="975.38" as="targetPoint"/>
                    </mxGeometry>
                </mxCell>
                <mxCell id="108" value="" style="edgeStyle=none;html=1;entryX=1;entryY=0.5;entryDx=0;entryDy=0;exitX=0;exitY=0.5;exitDx=0;exitDy=0;" edge="1" parent="1">
                    <mxGeometry relative="1" as="geometry">
                        <mxPoint x="695" y="1430" as="sourcePoint"/>
                        <mxPoint x="600" y="1430" as="targetPoint"/>
                    </mxGeometry>
                </mxCell>
                <mxCell id="109" value="" style="edgeStyle=none;html=1;entryX=1;entryY=0.5;entryDx=0;entryDy=0;exitX=0;exitY=0.5;exitDx=0;exitDy=0;" edge="1" parent="1">
                    <mxGeometry relative="1" as="geometry">
                        <mxPoint x="695" y="1890" as="sourcePoint"/>
                        <mxPoint x="600" y="1890" as="targetPoint"/>
                    </mxGeometry>
                </mxCell>
            </root>
        </mxGraphModel>
    </diagram>
</mxfile>